<?xml version="1.0" encoding="UTF-8" standalone="no"?>
<svg
   xmlns:dc="http://purl.org/dc/elements/1.1/"
   xmlns:cc="http://creativecommons.org/ns#"
   xmlns:rdf="http://www.w3.org/1999/02/22-rdf-syntax-ns#"
   xmlns:svg="http://www.w3.org/2000/svg"
   xmlns="http://www.w3.org/2000/svg"
   xmlns:sodipodi="http://sodipodi.sourceforge.net/DTD/sodipodi-0.dtd"
   xmlns:inkscape="http://www.inkscape.org/namespaces/inkscape"
   inkscape:version="1.0 (4035a4fb49, 2020-05-01)"
   sodipodi:docname="Logo-PAK-Horizontal.svg"
   version="1.1"
   id="svg2"
   xml:space="preserve"
   width="790"
   height="192"
   viewBox="0 0 790 192"><sodipodi:namedview
     inkscape:current-layer="svg2"
     inkscape:window-maximized="1"
     inkscape:window-y="-8"
     inkscape:window-x="-8"
     inkscape:cy="408"
     inkscape:cx="528"
     inkscape:zoom="1.000947"
     showgrid="false"
     id="namedview46"
     inkscape:window-height="1017"
     inkscape:window-width="1920"
     inkscape:pageshadow="2"
     inkscape:pageopacity="0"
     guidetolerance="10"
     gridtolerance="10"
     objecttolerance="10"
     borderopacity="1"
     bordercolor="#666666"
     pagecolor="#ffffff" /><metadata
     id="metadata8"><rdf:RDF><cc:Work
         rdf:about=""><dc:format>image/svg+xml</dc:format><dc:type
           rdf:resource="http://purl.org/dc/dcmitype/StillImage" /><dc:title></dc:title></cc:Work></rdf:RDF></metadata><defs
     id="defs6"><clipPath
       clipPathUnits="userSpaceOnUse"
       id="clipPath18"><path
         d="M 0,612 H 792 V 0 H 0 Z"
         id="path16" /></clipPath></defs><g
     id="g10"
     transform="matrix(1.3333333,0,0,-1.3333333,-132.87228,504.29707)"><g
       id="g12"><g
         id="g14"
         clip-path="url(#clipPath18)"><g
           id="g20"
           transform="translate(264.8962,303.739)"><path
             d="m 0,0 h 3.61 c 7.845,0 15.214,0.911 15.214,10.386 0,6.63 -3.767,10.403 -10.395,10.403 H 0 Z M -5.195,25.306 H 7.749 c 9.876,0 16.284,-4.975 16.284,-14.92 0,-9.784 -7.388,-14.914 -16.799,-14.914 H 0 v -22.74 h -5.195 z"
             style="fill:#231f20;fill-opacity:1;fill-rule:nonzero;stroke:none"
             id="path22" /></g><g
           id="g24"
           transform="translate(314.6895,295.8275)"><path
             d="m 0,0 h -1.354 c -8.211,0 -18.011,-0.824 -18.011,-9.27 0,-5.02 3.608,-6.926 7.981,-6.926 C -0.237,-16.196 0,-6.469 0,-2.336 Z M 0.437,-13.185 H 0.285 c -2.107,-4.58 -7.456,-7.076 -12.196,-7.076 -10.931,0 -12.653,7.384 -12.653,10.849 0,12.875 13.706,13.488 23.652,13.488 H 0 v 1.947 c 0,6.56 -2.345,9.871 -8.747,9.871 -3.998,0 -7.763,-0.905 -11.301,-3.167 v 4.598 c 2.951,1.425 7.909,2.633 11.301,2.633 9.484,0 13.481,-4.3 13.481,-14.319 v -16.935 c 0,-3.086 0,-5.416 0.374,-8.061 H 0.437 Z"
             style="fill:#231f20;fill-opacity:1;fill-rule:nonzero;stroke:none"
             id="path26" /></g><g
           id="g28"
           transform="translate(326.9588,306.2928)"><path
             d="M 0,0 C 0,4.22 0,5.799 -0.308,8.588 H 4.443 V 1.213 h 0.15 c 1.723,4.289 4.965,8.279 9.862,8.279 1.135,0 2.49,-0.222 3.326,-0.452 V 4.076 C 16.782,4.374 15.514,4.524 14.303,4.524 6.78,4.524 4.736,-3.91 4.736,-10.831 V -29.822 H 0 Z"
             style="fill:#231f20;fill-opacity:1;fill-rule:nonzero;stroke:none"
             id="path30" /></g><g
           id="g32"
           transform="translate(361.2368,279.6313)"><path
             d="m 0,0 c 8.437,0 11.373,9.04 11.373,16.047 0,7.002 -2.936,16.037 -11.373,16.037 -9.041,0 -11.37,-8.583 -11.37,-16.037 C -11.37,8.588 -9.041,0 0,0 M 16.111,-18.968 H 11.373 V 3.406 H 11.229 C 8.9,-1.569 5.261,-4.065 -0.756,-4.065 c -10.544,0 -15.811,8.742 -15.811,20.112 0,11.668 4.53,20.113 15.811,20.113 8.142,0 11.08,-5.8 11.985,-7.163 h 0.144 v 6.252 h 4.738 z"
             style="fill:#231f20;fill-opacity:1;fill-rule:nonzero;stroke:none"
             id="path34" /></g><g
           id="g36"
           transform="translate(415.0247,285.5047)"><path
             d="m 0,0 c 0,-2.937 0,-5.943 0.287,-9.034 h -4.592 v 6.852 h -0.15 c -1.582,-3.463 -4.449,-7.757 -12.432,-7.757 -9.496,0 -13.095,6.332 -13.095,14.759 v 24.556 h 4.739 V 6.035 c 0,-7.238 2.553,-11.908 9.117,-11.908 8.668,0 11.365,7.619 11.365,14.014 V 29.376 H 0 Z"
             style="fill:#231f20;fill-opacity:1;fill-rule:nonzero;stroke:none"
             id="path38" /></g><g
           id="g40"
           transform="translate(446.5765,298.3921)"><path
             d="M 0,0 C 0,6.693 -2.706,13.329 -9.799,13.329 -16.802,13.329 -21.097,6.321 -21.097,0 Z m 2.338,-20.708 c -3.309,-1.363 -7.623,-2.118 -11.158,-2.118 -12.726,0 -17.464,8.594 -17.464,20.112 0,11.754 6.479,20.107 16.192,20.107 10.836,0 15.287,-8.731 15.287,-19.053 v -2.399 h -26.292 c 0,-8.147 4.364,-14.702 12.658,-14.702 3.467,0 8.507,1.436 10.777,2.874 z"
             style="fill:#231f20;fill-opacity:1;fill-rule:nonzero;stroke:none"
             id="path42" /></g><g
           id="g44"
           transform="translate(478.0655,318.4991)"><path
             d="M 0,0 H -0.164 L -7.762,-21.693 H 7.609 Z M -5.809,10.545 H 6.103 L 26.73,-42.028 H 15.051 l -7.442,20.335 -18.396,-8.285 -4.591,-12.05 h -10.916 z"
             style="fill:#231f20;fill-opacity:1;fill-rule:nonzero;stroke:none"
             id="path46" /></g><g
           id="g48"
           transform="translate(507.1348,315.2525)"><path
             d="m 0,0 h 8.948 v -8.799 h 0.16 c 0.458,3.606 4.588,9.722 10.617,9.722 0.997,0 2.022,0 3.087,-0.304 V -9.555 c -0.909,0.527 -2.713,0.825 -4.518,0.825 -8.209,0 -8.209,-10.243 -8.209,-15.807 V -38.782 H 0 Z"
             style="fill:#231f20;fill-opacity:1;fill-rule:nonzero;stroke:none"
             id="path50" /></g><g
           id="g52"
           transform="translate(545.9968,282.9509)"><path
             d="M 0,0 C 3.089,0 5.499,1.351 7.065,3.465 8.723,5.651 9.19,8.422 9.19,11.451 H 4.807 C 0.292,11.451 -6.408,10.695 -6.408,4.735 -6.408,1.421 -3.621,0 0,0 m -11.834,30.28 c 3.923,1.805 9.186,2.944 13.489,2.944 11.826,0 16.718,-4.906 16.718,-16.352 v -4.974 c 0,-3.917 0.068,-6.854 0.153,-9.716 0.072,-2.943 0.218,-5.645 0.448,-8.662 H 10.091 C 9.702,-4.442 9.702,-1.884 9.625,-0.693 H 9.492 C 7.143,-4.981 2.093,-7.385 -2.499,-7.385 c -6.835,0 -13.551,4.146 -13.551,11.53 0,5.806 2.788,9.184 6.626,11.068 3.845,1.877 8.815,2.255 13.037,2.255 H 9.19 c 0,6.246 -2.801,8.353 -8.738,8.353 -4.299,0 -8.596,-1.655 -11.98,-4.213 z"
             style="fill:#231f20;fill-opacity:1;fill-rule:nonzero;stroke:none"
             id="path54" /></g><g
           id="g56"
           transform="translate(606.1709,276.4707)"><path
             d="m 0,0 h -9.555 v 5.273 h -0.154 c -3.103,-3.773 -7.464,-6.178 -12.745,-6.178 -9.186,0 -13.17,6.482 -13.17,15.224 v 24.463 h 10.091 V 18.074 c 0,-4.74 0.065,-11.158 6.552,-11.158 7.308,0 8.886,7.923 8.886,12.893 V 38.782 H 0 Z"
             style="fill:#231f20;fill-opacity:1;fill-rule:nonzero;stroke:none"
             id="path58" /></g><g
           id="g60"
           transform="translate(637.9698,306.8995)"><path
             d="m 0,0 c -1.827,0.836 -3.788,1.437 -6.862,1.437 -6.257,0 -10.249,-4.968 -10.249,-12.286 0,-7.151 3.381,-12.658 10.455,-12.658 2.868,0 6.04,1.053 7.767,1.814 l 0.463,-8.364 c -2.943,-0.904 -5.96,-1.276 -10.105,-1.276 -12.733,0 -19.127,8.661 -19.127,20.484 0,11.221 6.64,20.125 18.746,20.125 4.08,0 7.011,-0.465 9.81,-1.295 z"
             style="fill:#231f20;fill-opacity:1;fill-rule:nonzero;stroke:none"
             id="path62" /></g><g
           id="g64"
           transform="translate(660.249,283.3926)"><path
             d="m 0,0 c 7.755,0 9.781,6.932 9.781,13.414 0,5.954 -3.155,11.53 -9.781,11.53 -6.553,0 -9.719,-5.731 -9.719,-11.53 C -9.719,7.019 -7.674,0 0,0 m 0,32.783 c 11.53,0 20.333,-7.765 20.333,-20.578 C 20.333,1.053 12.867,-7.826 0,-7.826 c -12.799,0 -20.276,8.879 -20.276,20.031 0,12.813 8.814,20.578 20.276,20.578"
             style="fill:#231f20;fill-opacity:1;fill-rule:nonzero;stroke:none"
             id="path66" /></g><g
           id="g68"
           transform="translate(679.0469,329.8918)"><path
             d="m 0,0 h 1.964 c 1.297,0 2.434,0.172 2.434,1.764 0,1.408 -1.277,1.637 -2.425,1.637 H 0 Z m -2.213,5.084 h 4.426 c 2.851,0 4.394,-0.979 4.394,-3.48 0,-2.034 -1.162,-3.029 -3.117,-3.2 L 6.699,-6.795 H 4.417 L 1.34,-1.678 H 0 V -6.795 H -2.213 Z M 9.78,-0.893 c 0,4.913 -3.559,8.456 -7.928,8.456 -4.408,0 -7.952,-3.543 -7.952,-8.456 0,-4.912 3.544,-8.462 7.952,-8.462 4.369,0 7.928,3.55 7.928,8.462 m -18.43,0 c 0,5.777 4.7,10.488 10.502,10.488 5.76,0 10.478,-4.711 10.478,-10.488 0,-5.794 -4.718,-10.5 -10.478,-10.5 -5.802,0 -10.502,4.706 -10.502,10.5"
             style="fill:#231f20;fill-opacity:1;fill-rule:nonzero;stroke:none"
             id="path70" /></g><g
           id="g72"
           transform="translate(242.9669,306.0046)"><path
             d="m 0,0 c 0,-39.324 -31.866,-71.181 -71.163,-71.181 -39.315,0 -71.18,31.857 -71.18,71.181 0,39.306 31.865,71.172 71.18,71.172 C -31.866,71.172 0,39.306 0,0"
             style="fill:#ffffff;fill-opacity:1;fill-rule:nonzero;stroke:none"
             id="path74" /></g><g
           id="g76"
           transform="translate(236.8108,298.6507)"><path
             d="m 0,0 c -1.045,0.073 -2.103,0.123 -3.166,0.123 -26.393,0 -47.849,-21.465 -47.849,-47.849 0,-2.953 0.282,-5.827 0.786,-8.63 C -23.559,-50.193 -3.107,-27.715 0,0"
             style="fill:#42a430;fill-opacity:1;fill-rule:nonzero;stroke:none"
             id="path78" /></g><g
           id="g80"
           transform="translate(110.5596,298.7748)"><path
             d="m 0,0 c -1.258,0 -2.521,-0.073 -3.77,-0.168 3.157,-27.901 23.845,-50.483 50.797,-56.447 0.531,2.848 0.822,5.768 0.822,8.766 C 47.849,-21.469 26.384,0 0,0"
             style="fill:#42a430;fill-opacity:1;fill-rule:nonzero;stroke:none"
             id="path82" /></g><g
           id="g84"
           transform="translate(110.5596,305.783)"><path
             d="m 0,0 c 5.296,0 10.424,-0.745 15.265,-2.157 1.713,23.872 21.665,42.766 45.978,42.766 24.354,0 44.347,-18.99 45.978,-42.953 5.023,1.526 10.355,2.344 15.865,2.344 1.203,0 2.402,-0.036 3.565,-0.123 0.018,0.141 0.027,0.264 0.027,0.4 0,36.131 -29.295,65.431 -65.435,65.431 -36.14,0 -65.44,-29.3 -65.44,-65.431 0,-0.154 0.009,-0.286 0.009,-0.427 C -2.802,-0.045 -1.417,0 0,0"
             style="fill:#264a95;fill-opacity:1;fill-rule:nonzero;stroke:none"
             id="path86" /></g><g
           id="g88"
           transform="translate(178.7772,250.9249)"><path
             d="M 0,0 C 0,22.133 13.171,41.25 32.084,49.906 31.802,71.217 14.389,88.463 -6.972,88.463 -28.265,88.463 -45.615,71.358 -46.032,50.175 -26.798,41.64 -13.358,22.364 -13.358,0 c 0,-3.388 -0.295,-6.699 -0.89,-9.91 2.38,-0.255 4.801,-0.4 7.276,-0.4 2.644,0 5.269,0.164 7.857,0.472 C 0.309,-6.654 0,-3.361 0,0"
             style="fill:#ed192e;fill-opacity:1;fill-rule:nonzero;stroke:none"
             id="path90" /></g></g></g></g></svg>
