<svg id="a37b748b-0d5d-4a3c-b37c-91e84e109637" data-name="Capa 1" xmlns="http://www.w3.org/2000/svg" width="1235.31" height="1402.06" viewBox="0 0 1235.31 1402.06">
  <g>
    <path id="acc09aaf-4724-4509-a322-99e5c863d92d" data-name=" Trazado " d="M129.88,1150.88" transform="translate(-182 -263.94)" style="fill: #aeacac"/>
    <path d="M1281,1593v-1.36s-.27,0,0-.27m0-4.37H1153.15s-17.8,1.08-9.16-15.91L1209.5,1460h-31.33c-34.72,0-30.83-35-30.83-35h114.3c4.14.28,15.74,1.93,7.73,16.84h0L1201.48,1555h55.09c24,0,25.39,24.58,24.85,34M404,1440.09c8.64,10,13,25.93,13,47.27v80.76A21.89,21.89,0,0,1,395.12,1590h-.26a45.06,45.06,0,0,1-20.86,0v-91c-1.29-11.35-2.64-20-5.61-25.93-2.7-6-8.38-9.19-17-9.19a35.89,35.89,0,0,0-10.54,1.62,24.6,24.6,0,0,0-9.45,5.68,35.6,35.6,0,0,0-7,11.88,40.81,40.81,0,0,0-1.4,19.72v66.7c-1,23.5-23.5,23.5-23.5,23.5h-1.25a125.73,125.73,0,0,1-22.25-1.89v-91c0-11.35-1.35-20-4.34-25.93-2.71-6-8.41-9.19-17.09-9.19a39,39,0,0,0-10.85,1.62,19.39,19.39,0,0,0-9.49,6.22,33.23,33.23,0,0,0-6.79,12.69q-2.44,8.12-2.44,21.07v62.91h0v2.16c.21.54-.06.81-.06,1.35a1,1,0,0,1-.27.81c0,.27-.27.81-.27,1.08s-.27.81-.27,1.08-.27.54-.27.81a1.92,1.92,0,0,1-.54,1.08.9.9,0,0,1-.27.54,7.7,7.7,0,0,1-1.05,1.35v.35A21.38,21.38,0,0,1,203.3,1591a120.67,120.67,0,0,1-21.3-1.81v-161c3-.54,5.67-1.08,8.65-1.35s6.21-.54,9.72-.54a51.64,51.64,0,0,1,9.46.54c2.7.27,5.4.81,8.37,1.35a19.81,19.81,0,0,1,1.89,4.6,41.43,41.43,0,0,1,1.35,6.21,54.74,54.74,0,0,1,1.08,6.48c.27,2.16.54,3.78.81,5.41a40.72,40.72,0,0,1,6.76-9.46,42.07,42.07,0,0,1,9.72-8.37,55.23,55.23,0,0,1,12.7-6.22,47.67,47.67,0,0,1,15.67-2.43c25.39,0,41.33,9.46,48.35,28.64a59.73,59.73,0,0,1,17.83-20c7.56-5.68,17.29-8.65,28.91-8.65,18.91.54,32.68,5.4,41.06,15.67M525,1556.78c-2.43.54-5.13.81-8.1,1.35a53.55,53.55,0,0,1-9.46.81,59.72,59.72,0,0,1-9.45-.54,31.59,31.59,0,0,1-10.27-2.43,21.29,21.29,0,0,1-8.37-6.48c-2.43-3-3.51-7-3.51-12.43,0-8.1,3-14,8.91-17.56,5.94-3.78,14-5.4,24.31-5.4,2.43,0,4.87.27,7.84.54a64.84,64.84,0,0,1,8.1,1.08Zm21.88-116.21c-12.14-10.54-29.15-15.67-50.74-15.67a178.94,178.94,0,0,0-25.64,2.16,103,103,0,0,0-11.91,2.43c-1.08.27-1.9.54-3,.81-4.32,1.08-8.64,2.44-13,3.79a60.09,60.09,0,0,0,1.62,14.58,7.85,7.85,0,0,1,.54,2.44,13.11,13.11,0,0,0,.81,1.89A17,17,0,0,0,461,1463h.28a7.63,7.63,0,0,0,2.42-.27,8.06,8.06,0,0,1,2.7-.54,96.89,96.89,0,0,1,21.05-2.43,79.79,79.79,0,0,1,14.31,1.08,30,30,0,0,1,10.8,3.51,22.64,22.64,0,0,1,7,7.3A27,27,0,0,1,522,1483.8v3.78c-7.29-.54-14-.81-20-.81a112.79,112.79,0,0,0-25.1,2.71,76,76,0,0,0-22.66,8.64,47.22,47.22,0,0,0-16.46,16.21q-6.48,10.13-6.49,25.12c0,10,1.62,18.37,5.14,25.12A43.59,43.59,0,0,0,451,1581.32a65,65,0,0,0,22.94,9.46,141.32,141.32,0,0,0,29.24,2.66c12.9,0,32.93-2.7,44.52-5.13,10.81-2.43,17.28-11.08,17.28-21.34v-76.45c.27-23-5.67-39.71-18.08-50M1373,1555.44c-2.43.54-5.14.81-8.11,1.35a55.4,55.4,0,0,1-9.45.81,59.84,59.84,0,0,1-9.46-.54,33.28,33.28,0,0,1-10.26-2.43,21.32,21.32,0,0,1-8.38-6.48c-2.16-3-3.51-7-3.51-12.43,0-8.1,3-14,8.92-17.56,5.94-3.78,14-5.4,24.31-5.4,2.43,0,4.86.27,7.83.54s5.68.81,8.11,1.08Zm23-118.13c-12.25-10.54-29.39-15.67-51.17-15.67a180.67,180.67,0,0,0-25.86,2.16,93.21,93.21,0,0,0-11.94,2.43c-1.1.27-1.91.54-3,.81-4.36,1.08-8.7,2.43-12.79,3.78a56.91,56.91,0,0,0,1.63,14.59c.28.81.28,1.62.55,2.43s.54,1.35.81,2.16a17.1,17.1,0,0,0,15.51,10h.28a7.79,7.79,0,0,0,2.45-.27c.82-.27,1.9-.27,2.73-.54a98.37,98.37,0,0,1,21.22-2.43,75.36,75.36,0,0,1,14.15,1.08,30.4,30.4,0,0,1,10.89,3.51,18.3,18.3,0,0,1,7.07,7.29,26.82,26.82,0,0,1,2.46,12.16v3.78c-7.35-.54-14.16-1.08-20.15-1.08a115.25,115.25,0,0,0-25.31,2.7,77.35,77.35,0,0,0-22.88,8.65,49.89,49.89,0,0,0-16.61,16.21q-6.51,10.13-6.52,25.12c0,10,1.63,18.37,5.17,25.39a46,46,0,0,0,14.7,16.75,64.68,64.68,0,0,0,22.88,9.46,142.86,142.86,0,0,0,29.39,2.7c13.34,0,33.21-2.7,44.91-5.13,10.88-2.44,17.42-11.08,17.42-21.35v-76.72c.27-22.69-5.72-39.44-18-50m-309,118.13c-2.43.54-4.87.81-8.11,1.35a55.4,55.4,0,0,1-9.45.81,59.84,59.84,0,0,1-9.46-.54,30,30,0,0,1-10.26-2.43,21.32,21.32,0,0,1-8.38-6.48c-2.43-3-3.51-7-3.51-12.43,0-8.1,3-14,8.92-17.56,5.94-3.78,14-5.4,24.31-5.4,2.43,0,4.86.27,7.83.54s5.68.81,8.11,1.08Zm25.65-118.1c-12.16-10.54-29.18-15.67-50.79-15.67a179.34,179.34,0,0,0-25.66,2.16,104.83,104.83,0,0,0-11.89,2.43c-1.08.27-1.89.54-3,.81-4.32,1.08-8.64,2.43-12.69,3.78a57.34,57.34,0,0,0,1.62,14.59c.27.81.27,1.62.54,2.43a6.19,6.19,0,0,1,.54,2.16,17,17,0,0,0,15.39,10h-1.16a7.85,7.85,0,0,0,2.46-.27c.81-.27,1.64-.27,2.72-.54a99.26,99.26,0,0,1,21.31-2.43,81.5,81.5,0,0,1,14.47,1.08,30.49,30.49,0,0,1,10.92,3.51,18.39,18.39,0,0,1,7.11,7.29,26.84,26.84,0,0,1,2.46,12.16v3.78c-7.38-.54-14.21-1.08-20.22-1.08a116,116,0,0,0-25.4,2.7,77.43,77.43,0,0,0-22.93,8.65,50,50,0,0,0-16.66,16.21q-6.57,10.13-6.55,25.12a73.89,73.89,0,0,0,1.36,14h0c-1.91.54-14.75,2.43-16.66,2.43a38.34,38.34,0,0,1-5.46.27c-3.82,0-7.1-.27-9.56-1.35a13.11,13.11,0,0,1-6.28-4.59c-1.64-2.17-2.73-5.14-3.55-9.19a83.06,83.06,0,0,1-1.09-15.67V1378.81a21.11,21.11,0,0,0-21.37-20.58h0a121.58,121.58,0,0,0-21.63,1.85v173.15c0,20,4.87,34.38,14.62,43.31s22.74,13.26,38.71,13.26c4,0,8.39-.27,13-.54,3.79-.27,30.58-5.14,42.22-7.57a60.26,60.26,0,0,0,19.22,7,141.32,141.32,0,0,0,29.23,2.7c13,0,33-2.7,44.67-5.13,10.83-2.44,17.32-11.1,17.32-21.39v-76.73c.27-22.15-5.94-38.9-18.1-49.43m-273,106.43c-6.76,8.38-16.75,12.43-29.72,12.43a67.14,67.14,0,0,1-19.18-2.43V1500.3a64,64,0,0,1,1.62-14.59,35.27,35.27,0,0,1,5.13-12.15,23.51,23.51,0,0,1,8.92-8.11,28.27,28.27,0,0,1,13.24-3c5.67,0,10.26,1.08,14.31,3.51a28.9,28.9,0,0,1,9.46,9.46,43.59,43.59,0,0,1,5.4,14,96.41,96.41,0,0,1,1.62,18.1c-.54,16.74-3.78,29.17-10.8,37.54m40.51-100.49a56,56,0,0,0-20.53-15.13,65.19,65.19,0,0,0-25.13-4.86,49.55,49.55,0,0,0-15.94,2.43,47.9,47.9,0,0,0-13,6.22,43.32,43.32,0,0,0-9.73,8.64,72.66,72.66,0,0,0-7,9.73c-.27-1.36-.54-3.25-.81-5.41,0-.54-.27-1.35-.27-1.89-6.48-19.45-40-8.91-40-8.91v118.77c-3.07.56-9.79,2.24-11.45,2.24a40.32,40.32,0,0,1-5.6.27c-3.91,0-7.27-.27-9.78-1.4a13.38,13.38,0,0,1-6.42-4.74c-1.68-2.24-2.8-5.6-3.63-9.51a86.16,86.16,0,0,1-1.12-16.2V1380.94a21.79,21.79,0,0,0-21.86-21h0a125.43,125.43,0,0,0-22.14,1.88v173.39a95.12,95.12,0,0,0,1.63,18.45c-3,.54-9.23,1.91-10.85,2.18a39.42,39.42,0,0,1-5.43.26c-3.8,0-7.05-.26-9.49-1.35a13,13,0,0,1-6.25-4.62c-1.63-2.17-2.72-5.42-3.52-9.23a83,83,0,0,1-1.09-15.74V1380.45a21.46,21.46,0,0,0-21.37-20.57h0a122.51,122.51,0,0,0-21.63,1.84V1535c0,20,4.86,34.22,14.55,43.1s22.36,13.2,38.52,13.2c4,0,8.36-.27,13-.54,4.31-.53,29.63-4.84,35.83-6.19,8.35,4.58,18,7,29.63,7,4,0,8.35-.27,13-.54,1.89,0,7.81-1.07,14.55-2.15v75.51c4.07.54,7.78,1.08,11.27,1.35,3.76.27,7.24.27,10.73.27h.54A21.62,21.62,0,0,0,790,1646.55v-54.34a57.16,57.16,0,0,0,8.64,1.08c3.52.27,6.76.54,10.54.54,13.78,0,25.93-1.89,36.74-6.21a75.86,75.86,0,0,0,27.55-17.29,70.85,70.85,0,0,0,17-27.29c4.06-10.8,6-22.69,6-36.2,0-14-1.62-25.93-4.87-36.19a67.25,67.25,0,0,0-13.23-25.94" transform="translate(-182 -263.94)" style="fill: #56575b"/>
    <path d="M1052.31,1176.7h0c-36.74,19.18-68.35,21.07-81.85,2.16-2.17-3.24-3.52-6.75-5.46-10.26v-.54c1.13-.54.86-1.35.86-2.16-.27-1.09-.27-2.17,2.14-3.52v-.81c-2.41-10,1.37-21.34,7.32-32.41,52.14-94.82,212.6-284.73,212.6-454.92,0-158.85-42.68-254.48-78.88-315.8-7.3-12.16-17.29-27.55-23.77-42.68,0-.27-.27-.27-.27-.54a35.17,35.17,0,0,1-2.71-14,37.37,37.37,0,0,1,37.28-37.28,36.19,36.19,0,0,1,10.85,1.56c.27,0,.54.27.81.27,18.37,6.22,40.52,18.37,62.67,35.12,99.14,74.3,223.41,241.25,223.41,373.35,0,228-259.34,454.11-365,502.46m-401.12,40.79a19.47,19.47,0,0,1-7.84,17c-1.35,1.08-19.72,14-48.89,23.5-24.86,8.11-57.81,15.4-103.74,18.64-177.48,12.7-300.12-134.8-307.15-233.4,0-1.08-.27-4.59-.27-5.13a71.16,71.16,0,0,1,.81-17,76.59,76.59,0,0,1,141-28.1h.27c1.08,1.9,2.43,4.06,3.51,6.22,3.78,6.48,7,13.23,10.53,20,9.73,19.45,19.18,40,31.88,59.16,63.21,95.63,147.5,118.32,223.14,122.37,13,.81,22.42-.54,31.87-1.35,1.36,0,4.87-.27,5.41-.27a20.13,20.13,0,0,1,19.47,18.36M880,783.1C815.16,908.18,681.44,966,618.23,918.18,557.18,872,512.87,762,553.4,682.61,605,581.31,751.68,552.94,834.88,593.19,903,626.42,921.33,703.41,880,783.1m70-351.72c-166.67-80.5-459.78-24-563,178.83-80.77,158.58,7.29,378.47,129.67,471.13,126.42,95.36,393.86-20,523.53-270.41,82.67-159.38,45.93-313.64-90.23-379.55" transform="translate(-182 -263.94)" style="fill: #e8194d"/>
  </g>
</svg>
